<?xml version="1.0" encoding="utf-8"?>
<svg width="512px" height="512px" viewBox="0 0 20 20" xmlns="http://www.w3.org/2000/svg"><path fill-rule="evenodd" d="M1 3.5A1.5 1.5 0 012.5 2h15A1.5 1.5 0 0119 3.5v2A1.5 1.5 0 0117.5 7h-15A1.5 1.5 0 011 5.5v-2zm3.5 1a1 1 0 11-2 0 1 1 0 012 0zM1 9.5A1.5 1.5 0 012.5 8h15A1.5 1.5 0 0119 9.5v2A1.5 1.5 0 0117.5 13h-15A1.5 1.5 0 011 11.5v-2zm3.5 1a1 1 0 11-2 0 1 1 0 012 0zM1 15.5A1.5 1.5 0 012.5 14h15A1.5 1.5 0 0119 15.5v2A1.5 1.5 0 0117.5 19h-15A1.5 1.5 0 011 17.5v-2zm3.5 1a1 1 0 11-2 0 1 1 0 012 0z" fill="#D0CFD2"/></svg>